<svg width="24" height="24" viewBox="0 0 24 24" fill="none" xmlns="http://www.w3.org/2000/svg">
<g id="ic/24/social/facebook">
<path id="Shape" fill-rule="evenodd" clip-rule="evenodd" d="M19.5 3H4.5C3.65997 3 3 3.66003 3 4.5V19.5C3 20.34 3.65997 21 4.5 21H11.4H15H19.5C20.34 21 21 20.34 21 19.5V4.5C21 3.66003 20.34 3 19.5 3ZM12.0519 14.2609H9.79999V11.9652H12.0519V9.95654C12.0519 8.32092 13.2904 6.94348 14.8666 6.80005H17.4V9.0957H15.1481C14.6696 9.0957 14.3037 9.46875 14.3037 9.95654V11.9652H17.1185V14.2609H14.3037V20.2001H12.0519V14.2609ZM14.9285 20.2001H19.3214C19.8193 20.2001 20.2 19.8193 20.2 19.3215V4.67859C20.2 4.18079 19.8193 3.80005 19.3215 3.80005H4.67859C4.18066 3.80005 3.79999 4.18079 3.79999 4.67859V19.3215C3.79999 19.8193 4.18066 20.2001 4.67859 20.2001H11.4142V14.9286H9.07141V11.4143H11.4142V9.95007C11.4142 7.98792 12.9371 6.3186 14.8993 6.14294H18.15V9.65723H15.2214C15.0457 9.65723 14.9285 9.77429 14.9285 9.95007V11.4143H17.8571V14.9286H14.9285V20.2001Z" fill="white"/>
<mask id="mask0_0_841" style="mask-type:alpha" maskUnits="userSpaceOnUse" x="2" y="2" width="20" height="20">
<g id="Shape_2">
<path fill-rule="evenodd" clip-rule="evenodd" d="M19.5 3H4.50001C3.65999 3 3 3.65999 3 4.50001V19.5C3 20.34 3.65999 21 4.50001 21H11.4H15H19.5C20.34 21 21 20.34 21 19.5V4.50001C21 3.65999 20.34 3 19.5 3ZM12.0519 14.2609H9.8V11.9652H12.0519V9.95653C12.0519 8.32088 13.2904 6.94349 14.8667 6.8H17.4V9.09566H15.1481C14.6696 9.09566 14.3037 9.46869 14.3037 9.95653V11.9652H17.1185V14.2609H14.3037V20.2H12.0519V14.2609ZM14.9286 20.2H19.3214C19.8193 20.2 20.2 19.8193 20.2 19.3214V4.67857C20.2 4.1807 19.8193 3.8 19.3215 3.8H4.67857C4.1807 3.8 3.8 4.1807 3.8 4.67857V19.3214C3.8 19.8193 4.1807 20.2 4.67857 20.2L11.4143 20.2V14.9286H9.0714V11.4143H11.4143V9.94997C11.4143 7.98784 12.9372 6.31855 14.8993 6.14284H18.15V9.65713H15.2214C15.0457 9.65713 14.9286 9.77426 14.9286 9.94997V11.4143H17.8571V14.9286H14.9286V20.2Z" fill="white"/>
<path d="M9.8 14.2609H9.3V14.7609H9.8V14.2609ZM12.0519 14.2609H12.5519V13.7609H12.0519V14.2609ZM9.8 11.9652V11.4652H9.3V11.9652H9.8ZM12.0519 11.9652V12.4652H12.5519V11.9652H12.0519ZM14.8667 6.8V6.3H14.844L14.8213 6.30206L14.8667 6.8ZM17.4 6.8H17.9V6.3H17.4V6.8ZM17.4 9.09566V9.59566H17.9V9.09566H17.4ZM14.3037 11.9652H13.8037V12.4652H14.3037V11.9652ZM17.1185 11.9652H17.6185V11.4652H17.1185V11.9652ZM17.1185 14.2609V14.7609H17.6185V14.2609H17.1185ZM14.3037 14.2609V13.7609H13.8037V14.2609H14.3037ZM14.3037 20.2V20.7H14.8037V20.2H14.3037ZM12.0519 20.2H11.5519V20.7H12.0519V20.2ZM14.9286 20.2H14.4286V20.7H14.9286V20.2ZM20.2 19.3214L20.7 19.3215V19.3214H20.2ZM4.67857 20.2L4.67857 19.7H4.67857V20.2ZM11.4143 20.2L11.4143 20.7L11.9143 20.7V20.2H11.4143ZM11.4143 14.9286H11.9143V14.4286H11.4143V14.9286ZM9.0714 14.9286H8.5714V15.4286H9.0714V14.9286ZM9.0714 11.4143V10.9143H8.5714V11.4143H9.0714ZM11.4143 11.4143V11.9143H11.9143V11.4143H11.4143ZM14.8993 6.14284V5.64284H14.8769L14.8547 5.64483L14.8993 6.14284ZM18.15 6.14284H18.65V5.64284H18.15V6.14284ZM18.15 9.65713V10.1571H18.65V9.65713H18.15ZM14.9286 11.4143H14.4286V11.9143H14.9286V11.4143ZM17.8571 11.4143H18.3571V10.9143H17.8571V11.4143ZM17.8571 14.9286V15.4286H18.3571V14.9286H17.8571ZM14.9286 14.9286V14.4286H14.4286V14.9286H14.9286ZM4.50001 3.5H19.5V2.5H4.50001V3.5ZM3.5 4.50001C3.5 3.93613 3.93613 3.5 4.50001 3.5V2.5C3.38385 2.5 2.5 3.38385 2.5 4.50001H3.5ZM3.5 19.5V4.50001H2.5V19.5H3.5ZM4.50001 20.5C3.93612 20.5 3.5 20.0639 3.5 19.5H2.5C2.5 20.6162 3.38385 21.5 4.50001 21.5V20.5ZM11.4 20.5H4.50001V21.5H11.4V20.5ZM15 20.5H11.4V21.5H15V20.5ZM19.5 20.5H15V21.5H19.5V20.5ZM20.5 19.5C20.5 20.0639 20.0639 20.5 19.5 20.5V21.5C20.6162 21.5 21.5 20.6161 21.5 19.5H20.5ZM20.5 4.50001V19.5H21.5V4.50001H20.5ZM19.5 3.5C20.0639 3.5 20.5 3.93613 20.5 4.50001H21.5C21.5 3.38385 20.6162 2.5 19.5 2.5V3.5ZM9.8 14.7609H12.0519V13.7609H9.8V14.7609ZM9.3 11.9652V14.2609H10.3V11.9652H9.3ZM12.0519 11.4652H9.8V12.4652H12.0519V11.4652ZM11.5519 9.95653V11.9652H12.5519V9.95653H11.5519ZM14.8213 6.30206C12.9782 6.46985 11.5519 8.07185 11.5519 9.95653H12.5519C12.5519 8.56991 13.6026 7.41713 14.912 7.29794L14.8213 6.30206ZM17.4 6.3H14.8667V7.3H17.4V6.3ZM17.9 9.09566V6.8H16.9V9.09566H17.9ZM15.1481 9.59566H17.4V8.59566H15.1481V9.59566ZM14.8037 9.95653C14.8037 9.73571 14.9548 9.59566 15.1481 9.59566V8.59566C14.3844 8.59566 13.8037 9.20167 13.8037 9.95653H14.8037ZM14.8037 11.9652V9.95653H13.8037V11.9652H14.8037ZM17.1185 11.4652H14.3037V12.4652H17.1185V11.4652ZM17.6185 14.2609V11.9652H16.6185V14.2609H17.6185ZM14.3037 14.7609H17.1185V13.7609H14.3037V14.7609ZM14.8037 20.2V14.2609H13.8037V20.2H14.8037ZM12.0519 20.7H14.3037V19.7H12.0519V20.7ZM11.5519 14.2609V20.2H12.5519V14.2609H11.5519ZM19.3214 19.7H14.9286V20.7H19.3214V19.7ZM19.7 19.3214C19.7 19.5432 19.5431 19.7 19.3214 19.7V20.7C20.0954 20.7 20.7 20.0954 20.7 19.3215L19.7 19.3214ZM19.7 4.67857V19.3214H20.7V4.67857H19.7ZM19.3215 4.3C19.5432 4.3 19.7 4.45685 19.7 4.67857H20.7C20.7 3.90456 20.0955 3.3 19.3215 3.3V4.3ZM4.67857 4.3H19.3215V3.3H4.67857V4.3ZM4.3 4.67857C4.3 4.45685 4.45685 4.3 4.67857 4.3V3.3C3.90456 3.3 3.3 3.90456 3.3 4.67857H4.3ZM4.3 19.3214V4.67857H3.3V19.3214H4.3ZM4.67857 19.7C4.45685 19.7 4.3 19.5432 4.3 19.3214H3.3C3.3 20.0954 3.90456 20.7 4.67857 20.7V19.7ZM11.4143 19.7L4.67857 19.7L4.67857 20.7L11.4143 20.7L11.4143 19.7ZM10.9143 14.9286V20.2H11.9143V14.9286H10.9143ZM9.0714 15.4286H11.4143V14.4286H9.0714V15.4286ZM8.5714 11.4143V14.9286H9.5714V11.4143H8.5714ZM11.4143 10.9143H9.0714V11.9143H11.4143V10.9143ZM10.9143 9.94997V11.4143H11.9143V9.94997H10.9143ZM14.8547 5.64483C12.6347 5.84363 10.9143 7.72898 10.9143 9.94997H11.9143C11.9143 8.2467 13.2396 6.79347 14.9439 6.64084L14.8547 5.64483ZM18.15 5.64284H14.8993V6.64284H18.15V5.64284ZM18.65 9.65713V6.14284H17.65V9.65713H18.65ZM15.2214 10.1571H18.15V9.15713H15.2214V10.1571ZM15.4286 9.94997C15.4286 9.97573 15.4178 10.0361 15.3626 10.0912C15.3075 10.1464 15.2472 10.1571 15.2214 10.1571V9.15713C15.0199 9.15713 14.8132 9.22646 14.6555 9.3841C14.4979 9.54175 14.4286 9.74851 14.4286 9.94997H15.4286ZM15.4286 11.4143V9.94997H14.4286V11.4143H15.4286ZM17.8571 10.9143H14.9286V11.9143H17.8571V10.9143ZM18.3571 14.9286V11.4143H17.3571V14.9286H18.3571ZM14.9286 15.4286H17.8571V14.4286H14.9286V15.4286ZM15.4286 20.2V14.9286H14.4286V20.2H15.4286Z" fill="white"/>
</g>
</mask>
<g mask="url(#mask0_0_841)">
</g>
</g>
</svg>
